<?xml version="1.0" encoding="UTF-8"?>
<svg width="176px" height="130px" viewBox="0 0 176 130" version="1.1" xmlns="http://www.w3.org/2000/svg" xmlns:xlink="http://www.w3.org/1999/xlink">
    <!-- Generator: Sketch 49.3 (51167) - http://www.bohemiancoding.com/sketch -->
    <title>logo</title>
    <desc>Created with Sketch.</desc>
    <defs></defs>
    <g id="website" stroke="none" stroke-width="1" fill="none" fill-rule="evenodd">
        <g id="home" transform="translate(-156.000000, -175.000000)" fill="#2D2D2D">
            <g id="header_text" transform="translate(156.000000, 175.000000)">
                <g id="logo">
                    <g id="Combined-Shape">
                        <path d="M175.694922,20.7106199 L156.37019,40.0353519 C155.457768,38.7770728 154.465146,37.5556862 153.392323,36.3711911 C146.216765,28.4487139 137.396942,24.4875346 126.932587,24.4875346 C116.468232,24.4875346 107.648408,28.4487139 100.472851,36.3711911 C93.297293,44.2936684 89.709568,53.8665182 89.709568,65.0900277 C89.709568,76.3135372 93.297293,85.856378 100.472851,93.7188366 C107.648408,101.581295 116.468232,105.512465 126.932587,105.512465 C137.396942,105.512465 146.216765,101.581295 153.392323,93.7188366 C154.519412,92.4838539 155.557982,91.2074128 156.508032,89.8895122 L175.797952,109.179431 C175.107543,109.91783 174.395947,110.646111 173.663172,111.364266 C160.986353,123.788151 145.37975,130 126.842893,130 C108.306036,130 92.6994321,123.788151 80.0226138,111.364266 C67.3457954,98.9403811 61.0074813,83.4857803 61.0074813,65 C61.0074813,46.5142197 67.3457954,31.0596189 80.0226138,18.6357341 C92.6994321,6.21184924 108.306036,0 126.842893,0 C145.37975,0 160.986353,6.21184924 173.663172,18.6357341 C174.359552,19.3182195 175.036804,20.0098506 175.694929,20.7106275 Z M98.917758,84.2173821 C101.738011,78.5021174 103.148124,72.1263561 103.148124,65.0900277 C103.148124,58.0083165 101.719763,51.5837737 98.863012,45.816327 C100.141566,43.627969 101.668415,41.5538309 103.44356,39.5939071 C108.556829,33.9483864 114.614246,30.5774684 121.615934,29.4810982 C128.319217,39.7180088 131.670823,51.5575832 131.670823,65 C131.670823,78.3732015 128.353644,90.1600242 121.719213,100.360644 C114.673797,99.2895255 108.581954,95.9388532 103.44356,90.3085718 C101.693681,88.3911812 100.185081,86.3607864 98.917758,84.2173821 Z M91.2165161,4.56925006 C86.1084972,7.4903192 81.3367516,11.1243457 76.9012618,15.4713367 C73.9512225,18.3625156 71.3229884,21.4075636 69.0165574,24.6064859 C68.0025338,24.527185 66.9720503,24.4875346 65.9251055,24.4875346 C55.4607507,24.4875346 46.6409268,28.4487139 39.4653693,36.3711911 C32.2898117,44.2936684 28.7020867,53.8665182 28.7020867,65.0900277 C28.7020867,76.3135372 32.2898117,85.856378 39.4653693,93.7188366 C46.6409268,101.581295 55.4607507,105.512465 65.9251055,105.512465 C67.0068575,105.512465 68.0710354,105.470455 69.1176395,105.386435 C71.3996912,108.534299 73.9942313,111.532743 76.9012618,114.381771 C81.3807781,118.77191 86.2032585,122.43486 91.3687213,125.37063 C83.5854951,128.456883 75.0744128,130 65.8354115,130 C47.2985544,130 31.6919508,123.788151 19.0151325,111.364266 C6.33831411,98.9403811 -1.26217745e-29,83.4857803 -1.26217745e-29,65 C-1.26217745e-29,46.5142197 6.33831411,31.0596189 19.0151325,18.6357341 C31.6919508,6.21184924 47.2985544,0 65.8354115,0 C75.0142248,0 83.4745725,1.52307674 91.2165112,4.56925284 Z"></path>
                    </g>
                </g>
            </g>
        </g>
    </g>
</svg>